<mxfile host="app.diagrams.net" agent="Mozilla/5.0 (Windows NT 10.0; Win64; x64) AppleWebKit/537.36 (KHTML, like Gecko) Chrome/132.0.0.0 Safari/537.36" version="26.0.11">
  <diagram name="Страница — 1" id="nSU7BApJPILfDTlgh17r">
    <mxGraphModel dx="448" dy="675" grid="1" gridSize="10" guides="1" tooltips="1" connect="1" arrows="1" fold="1" page="1" pageScale="1" pageWidth="100000000" pageHeight="10000000000" math="0" shadow="0">
      <root>
        <mxCell id="0" />
        <mxCell id="1" parent="0" />
        <mxCell id="6GZxC3L--FbzKOLR946I-7" style="edgeStyle=orthogonalEdgeStyle;rounded=0;orthogonalLoop=1;jettySize=auto;html=1;exitX=0.5;exitY=1;exitDx=0;exitDy=0;" edge="1" parent="1" source="6GZxC3L--FbzKOLR946I-1" target="6GZxC3L--FbzKOLR946I-2">
          <mxGeometry relative="1" as="geometry" />
        </mxCell>
        <mxCell id="6GZxC3L--FbzKOLR946I-1" value="distance" style="ellipse;whiteSpace=wrap;html=1;" vertex="1" parent="1">
          <mxGeometry x="300" y="120" width="120" height="50" as="geometry" />
        </mxCell>
        <mxCell id="6GZxC3L--FbzKOLR946I-8" style="edgeStyle=orthogonalEdgeStyle;rounded=0;orthogonalLoop=1;jettySize=auto;html=1;" edge="1" parent="1" source="6GZxC3L--FbzKOLR946I-2" target="6GZxC3L--FbzKOLR946I-3">
          <mxGeometry relative="1" as="geometry" />
        </mxCell>
        <mxCell id="6GZxC3L--FbzKOLR946I-2" value="создание импульса 5 мкс" style="rounded=0;whiteSpace=wrap;html=1;" vertex="1" parent="1">
          <mxGeometry x="300" y="200" width="120" height="60" as="geometry" />
        </mxCell>
        <mxCell id="6GZxC3L--FbzKOLR946I-9" style="edgeStyle=orthogonalEdgeStyle;rounded=0;orthogonalLoop=1;jettySize=auto;html=1;exitX=0.5;exitY=1;exitDx=0;exitDy=0;entryX=0.5;entryY=0;entryDx=0;entryDy=0;" edge="1" parent="1" source="6GZxC3L--FbzKOLR946I-3" target="6GZxC3L--FbzKOLR946I-4">
          <mxGeometry relative="1" as="geometry" />
        </mxCell>
        <mxCell id="6GZxC3L--FbzKOLR946I-3" value="duration&lt;div&gt;(определение длительности импульса)&lt;/div&gt;" style="shape=process;whiteSpace=wrap;html=1;backgroundOutline=1;" vertex="1" parent="1">
          <mxGeometry x="300" y="290" width="120" height="60" as="geometry" />
        </mxCell>
        <mxCell id="6GZxC3L--FbzKOLR946I-10" style="edgeStyle=orthogonalEdgeStyle;rounded=0;orthogonalLoop=1;jettySize=auto;html=1;exitX=0.5;exitY=1;exitDx=0;exitDy=0;" edge="1" parent="1" source="6GZxC3L--FbzKOLR946I-4" target="6GZxC3L--FbzKOLR946I-5">
          <mxGeometry relative="1" as="geometry" />
        </mxCell>
        <mxCell id="6GZxC3L--FbzKOLR946I-4" value="dutarion &amp;gt; 0" style="rhombus;whiteSpace=wrap;html=1;" vertex="1" parent="1">
          <mxGeometry x="310" y="390" width="100" height="80" as="geometry" />
        </mxCell>
        <mxCell id="6GZxC3L--FbzKOLR946I-12" style="edgeStyle=orthogonalEdgeStyle;rounded=0;orthogonalLoop=1;jettySize=auto;html=1;exitX=0.5;exitY=1;exitDx=0;exitDy=0;" edge="1" parent="1" source="6GZxC3L--FbzKOLR946I-5" target="6GZxC3L--FbzKOLR946I-6">
          <mxGeometry relative="1" as="geometry" />
        </mxCell>
        <mxCell id="6GZxC3L--FbzKOLR946I-5" value="перевод duration в см" style="rounded=0;whiteSpace=wrap;html=1;" vertex="1" parent="1">
          <mxGeometry x="300" y="510" width="120" height="60" as="geometry" />
        </mxCell>
        <mxCell id="6GZxC3L--FbzKOLR946I-6" value="конец" style="ellipse;whiteSpace=wrap;html=1;" vertex="1" parent="1">
          <mxGeometry x="300" y="610" width="120" height="50" as="geometry" />
        </mxCell>
        <mxCell id="6GZxC3L--FbzKOLR946I-14" value="" style="endArrow=none;html=1;rounded=0;" edge="1" parent="1">
          <mxGeometry width="50" height="50" relative="1" as="geometry">
            <mxPoint x="410" y="430" as="sourcePoint" />
            <mxPoint x="480" y="430" as="targetPoint" />
          </mxGeometry>
        </mxCell>
        <mxCell id="6GZxC3L--FbzKOLR946I-15" value="" style="endArrow=none;html=1;rounded=0;" edge="1" parent="1">
          <mxGeometry width="50" height="50" relative="1" as="geometry">
            <mxPoint x="480" y="590" as="sourcePoint" />
            <mxPoint x="480" y="430" as="targetPoint" />
          </mxGeometry>
        </mxCell>
        <mxCell id="6GZxC3L--FbzKOLR946I-16" value="" style="endArrow=none;html=1;rounded=0;" edge="1" parent="1" source="6GZxC3L--FbzKOLR946I-20">
          <mxGeometry width="50" height="50" relative="1" as="geometry">
            <mxPoint x="360" y="590" as="sourcePoint" />
            <mxPoint x="480" y="590" as="targetPoint" />
          </mxGeometry>
        </mxCell>
        <mxCell id="6GZxC3L--FbzKOLR946I-20" value="" style="shape=waypoint;sketch=0;fillStyle=solid;size=6;pointerEvents=1;points=[];fillColor=none;resizable=0;rotatable=0;perimeter=centerPerimeter;snapToPoint=1;" vertex="1" parent="1">
          <mxGeometry x="350" y="580" width="20" height="20" as="geometry" />
        </mxCell>
      </root>
    </mxGraphModel>
  </diagram>
</mxfile>
